<svg xmlns="http://www.w3.org/2000/svg" viewBox="0 0 255 40"><path d="M26.83,15.9l-1.59,1.93a4.37,4.37,0,0,0-3.14-1.57,3.72,3.72,0,0,0,0,7.43,4.66,4.66,0,0,0,3.14-1.41L26.85,24A7.07,7.07,0,0,1,22,26.18a6.14,6.14,0,1,1,.1-12.28A6.87,6.87,0,0,1,26.83,15.9ZM57.6,20a6.21,6.21,0,0,1-6.48,6.16,6.15,6.15,0,1,1,0-12.28A6.17,6.17,0,0,1,57.6,20ZM47.42,20a3.75,3.75,0,0,0,3.73,3.78A3.76,3.76,0,1,0,47.42,20Zm34.73,2.59H79.38v3.45H76.66V14H81.9c3.16,0,4.95,1.52,4.95,4.19a4,4,0,0,1-2.26,3.9l2.57,4H84.07Zm-.26-2.28c1.5,0,2.36-.69,2.36-2.07s-.86-2-2.36-2H79.38v4.09ZM112,14c2.66,0,4.31,1.16,4.31,3a2.65,2.65,0,0,1-2.09,2.66,3,3,0,0,1,2.52,3.05c0,2.07-1.74,3.35-4.55,3.35H106.4V14Zm-2.83,4.86h2.69c1,0,1.66-.5,1.66-1.35s-.64-1.29-1.66-1.29h-2.69Zm0,5h2.69c1.29,0,2.07-.53,2.07-1.47S113.11,21,111.82,21h-2.69Zm26.82,2.22V14h2.73V26.06Zm31.11,0-5.85-7.74v7.74h-2.6V14h2.48l5.86,7.76V14h2.59V26.06ZM0,0V40H255V0ZM184,39H1V1H184Zm25.09-12.94H206.6l-5.85-7.74v7.74h-2.6V14h2.48l5.86,7.76V14h2.59Zm29.61,0H228.2V24.22l6.76-8h-6.54V14h10.19v1.83l-6.74,8h6.85Z"/></svg>
