<svg id="title_svg" data-name="Layer 1" xmlns="http://www.w3.org/2000/svg" viewBox="0 0 292 45"><style>path{fill:#f1f0f0;}</style><path  d="M30.52,18.33l-1.84,2.24A5.07,5.07,0,0,0,25,18.75a4.31,4.31,0,0,0,0,8.62,5.41,5.41,0,0,0,3.64-1.64l1.86,2a8.2,8.2,0,0,1-5.66,2.5A7.13,7.13,0,1,1,25,16,8,8,0,0,1,30.52,18.33Z"/><path  d="M66.18,23.11a7.2,7.2,0,0,1-7.52,7.14,7.19,7.19,0,0,1-7.52-7.14c0-4.08,3.24-7.1,7.52-7.1S66.18,19,66.18,23.11Zm-11.8,0a4.35,4.35,0,0,0,4.32,4.38,4.36,4.36,0,1,0-4.32-4.38Z"/><path  d="M94.64,26.11H91.42v4H88.26v-14h6.08c3.66,0,5.74,1.76,5.74,4.86a4.62,4.62,0,0,1-2.62,4.52l3,4.62H96.86Zm-.3-2.64c1.74,0,2.74-.8,2.74-2.4s-1-2.34-2.74-2.34H91.42v4.74Z"/><path  d="M129.18,16.11c3.08,0,5,1.34,5,3.5a3.07,3.07,0,0,1-2.42,3.08,3.44,3.44,0,0,1,2.92,3.54c0,2.4-2,3.88-5.28,3.88h-6.66v-14Zm-3.28,5.64H129c1.18,0,1.92-.58,1.92-1.56s-.74-1.5-1.92-1.5H125.9Zm0,5.78H129c1.5,0,2.4-.62,2.4-1.7s-.9-1.64-2.4-1.64H125.9Z"/><path d="M157,30.11v-14h3.16v14Z"/><path d="M193,30.11l-6.78-9v9h-3v-14h2.88l6.8,9v-9h3v14Z"/><path  d="M0,0V45H292V0ZM212,44H1V1H212Zm29.52-13.89h-2.88l-6.78-9v9h-3v-14h2.88l6.8,9v-9h3Zm34.32,0H263.66V28l7.84-9.22h-7.58V16.11h11.82v2.12l-7.82,9.24h7.94Z"/></svg>
