<?xml version="1.0" encoding="utf-8"?>

<!-- Generator: Adobe Illustrator 18.0.0, SVG Export Plug-In . SVG Version: 6.00 Build 0)  -->

<svg version="1.1" id="Layer_1" xmlns="http://www.w3.org/2000/svg" xmlns:xlink="http://www.w3.org/1999/xlink" x="0px" y="0px"

	 viewBox="-5.5 -7.5 300 300" enable-background="new -5.5 -7.5 300 300" xml:space="preserve">

<rect x="-5.5" y="-7.5" fill="#E6E6E6" width="299.9" height="299.9"/>

<g>

	<polygon fill="#808080" points="213.1,226.5 212.6,228.5 210.2,239 216.2,240.4 222.3,214.9 216.2,213.4 	"/>

	<path fill="#E6E6E6" d="M219.5,153.8l1.2-4.1c2.4-7.1,4-14.7,4-22.6c0-38.5-31.5-70.5-69.5-72.4c-1.1,0-2.2-0.4-3.5-0.1v87.5

		c7.5-8.7,18.1-13.2,29.9-13.2c17.8,0,27.8,10.3,32.2,26.6c0,0-2.7,10.9-14.1,22.4c-11.4,11.4-23.3,14.4-23.3,14.4l-24.7-17.7v46

		l15.9-0.2l-0.2,9.9l-15.7-0.1v30.6l38.2-13.9l3.5-9.6l1.9-6.2l16.2-0.4l1.2-0.5l0.6-2.6l-1.1-0.2l-14-0.8l19.9-67.8l11.8,0l0-3.7

		L219.5,153.8z"/>

	<circle fill="#E6E6E6" cx="181.4" cy="156" r="18"/>

	<polygon fill="#999999" points="151.5,264.7 151.5,283.1 195.6,283.1 199.4,250.7 191.9,256.6 	"/>

	<polygon fill="#B3B3B3" points="213.1,227.6 213.1,227.6 212.6,229.4 	"/>

	<rect x="151.5" y="220.2" fill="#333333" width="16.2" height="10.4"/>

	<path fill="#808080" d="M154.2,46.4c-0.7-0.7-1.7-1.1-2.7-1.1v1v6.9c2.2,0,4-1.8,4-4C155.5,48.2,155,47.1,154.2,46.4z"/>

	

		<ellipse transform="matrix(-0.8345 -0.5511 0.5511 -0.8345 287.455 250.4297)" fill="#F2F2F2" cx="181.3" cy="82" rx="10.8" ry="6.1"/>

	<circle fill="#F2F2F2" cx="194.6" cy="93.2" r="2.6"/>

	<path fill="#3A2E24" d="M184.7,152.3c-0.2-0.2-0.5-0.4-0.9-0.6c-0.7-0.4-1.5-0.6-2.4-0.6c-0.9,0-1.7,0.2-2.5,0.7

		c-0.3,0.2-0.6,0.4-0.9,0.6c-1,0.9-1.7,2.3-1.7,3.8s0.7,2.8,1.7,3.8c0.2,0.2,0.5,0.4,0.9,0.6c0.7,0.4,1.6,0.7,2.5,0.7

		s1.6-0.2,2.4-0.6c0.3-0.1,0.6-0.3,0.9-0.6c1.1-0.9,1.8-2.3,1.8-3.9C186.5,154.7,185.8,153.3,184.7,152.3z"/>

	<polygon fill="#808080" points="167.7,206.2 151.5,194.3 151.5,196.9 	"/>

	<g>

		<path fill="#B3B3B3" d="M217.3,157.7l-22.4,69.9h17.1h1l2.8-12.1l5.7-24.4h4.8l3.3-31.3v-2.2H217.3z"/>

		<polygon fill="#B3B3B3" points="212.5,229.9 211.5,229.9 194.2,229.9 192,236.7 188.8,246.7 151.5,260.5 151.5,265.5 192.1,257.5 

			199.3,251.2 209.6,242.1 210.4,239.1 		"/>

		<path fill="#B3B3B3" d="M158.4,47.1c-0.9-2.9-3.6-5.1-6.8-5.1V46c0.8,0,1.6,0.3,2.2,0.9c0.6,0.6,1.1,1.4,1.1,2.4

			c0,1.8-1.4,3.2-3.2,3.2v2.9c1.2,0,2.4,0,3.6,0.1c38.1,1.8,68.3,33.3,68.3,71.8c0,7.9-1.3,15.5-3.6,22.6l-1.8,5.5h11.8v-26.8

			c0-0.8,0-1.6,0-2.4C229.8,84.7,198.4,50.6,158.4,47.1z"/>

	</g>

	<path fill="#CCCCCC" d="M181.5,127.4c-12,0-22.8,5.4-30,14V177l24.8,17.9c0,0,12.9-4.5,24.3-15.9c11.4-11.4,14.5-23.4,14.5-23.4

		C210.6,139.2,199.3,127.4,181.5,127.4z M166.8,165.3c-1.6-2.6-2.6-5.7-2.6-9.1c0-3.3,1-6.5,2.6-9.1V165.3z M172.5,170.9

		c-1.9-1.2-3.5-2.6-4.8-4.4v-20.7c1.3-1.7,2.9-3.2,4.8-4.4V170.9z M189.5,171.5c-1.5,0.8-3.1,1.3-4.8,1.7v-11.4c0,0-0.1,0.1-0.2,0.1

		c-0.2,0.1-0.4,0.2-0.7,0.3v11.1c-0.8,0.1-1.5,0.1-2.4,0.1s-1.6,0-2.5-0.2v-11.1c-0.2-0.1-0.5-0.2-0.7-0.3c0,0-0.1,0-0.1-0.1v11.4

		c-1.7-0.3-3.3-0.9-4.8-1.7v-30.4c1.5-0.8,3.1-1.4,4.8-1.7v11.4c0,0,0.1,0,0.1-0.1c0.2-0.1,0.5-0.2,0.7-0.3V139

		c0.8-0.1,1.6-0.2,2.5-0.2c0.8,0,1.6,0,2.4,0.1V150c0.2,0.1,0.4,0.2,0.7,0.3c0,0,0.1,0.1,0.2,0.1V139c1.7,0.3,3.3,0.9,4.8,1.7V171.5

		z M195.2,166.7c-1.3,1.7-2.9,3.2-4.8,4.3v-29.6c1.9,1.1,3.5,2.6,4.8,4.3V166.7z M196,165.4v-18.5c1.7,2.7,2.7,5.9,2.7,9.3

		C198.8,159.6,197.7,162.8,196,165.4z"/>

	

		<rect x="219.3" y="166.1" transform="matrix(-0.1033 0.9946 -0.9946 -0.1033 414.2979 -38.6719)" fill="#808080" width="10.6" height="2.6"/>

	

		<rect x="217.7" y="180.9" transform="matrix(-0.1033 0.9946 -0.9946 -0.1033 427.282 -20.8926)" fill="#808080" width="10.7" height="2.6"/>

</g>

<g>

	<polygon fill="#333333" points="137.8,261 106.1,261 102.1,260.4 62.8,243.2 66,283.1 97.6,283.1 106.1,283.1 137.8,283.1 	"/>

	<polygon fill="#B3B3B3" points="57.8,17.8 54.4,18.6 54.4,113 57.8,113 	"/>

	<path fill="#4D4D4D" d="M51.1,109.9v91.2c0,0,12.6-89.4,12.8-91.2L51.1,109.9z"/>

	<path fill="#808080" d="M112.7,263.5c-0.1-1.3-0.6-2.9-0.6-3.9c0-39.7-13-71.8-29.1-71.8c-13.2,0-24.7,21.9-28.2,51.8l57,26.2h0.7

		C112.4,265.1,112.6,264.4,112.7,263.5z"/>

	<polygon fill="#4D4D4D" points="55.3,152.5 55.3,152.5 51.1,189.4 51.1,189.4 	"/>

	<path fill="#999999" d="M60.1,109.9c-0.3,1.8-0.5,3.7-0.7,5.6l0,0l-1.1,9.8l4.6,1.4l74.9,9.8V47C98.5,47,66,72.6,60.1,109.9z"/>

	<polygon fill="#1A1A1A" points="60,132.9 61,143.4 116,165.2 119.3,265.8 137.8,265.8 137.8,148.2 	"/>

	<path fill="#333333" d="M111.7,247.6c0-42.3-20.4-80.4-48.9-92.8c-2.5-1.1-5-1.9-7.6-2.7l-4.2,37l-5.2,46.4l9.1,4.2

		c3.5-29.7,14.6-51.4,27.8-51.4c16,0,29,31.9,29,71.3c0,1,0.1,2.6,0.1,3.9C111.9,258.4,111.7,253.1,111.7,247.6z"/>

	<path fill="#333333" d="M111.7,265.9h0.1c0,0-0.1-1-0.1-2.3C111.7,264.4,111.7,265.1,111.7,265.9z"/>

	<path fill="#666666" d="M57.9,123.1l-3.2,29.2c0,0,5.7,1.7,8.1,2.8c28.4,12.3,48.7,50.4,48.7,92.5c0,5.4,0.1,18.2,0.1,18.2h2h0.1

		h6.5l-3.2-101.4l-54.8-22.2l-0.3-6.6l75.6,13.5v-16.1L57.9,123.1z"/>

	<polygon fill="#333333" points="100.9,5.6 47.9,1.4 52.8,23.2 54.4,22.8 57.8,22.1 101.2,12.3 	"/>

	<circle fill="#E6E6E6" cx="128.2" cy="123.7" r="0"/>

</g>

<rect x="137" y="-7.5" fill="#FFFFFF" width="15" height="299.8"/>

</svg>

