<svg xmlns="http://www.w3.org/2000/svg" viewBox="0 0 400 600">
	<g>
		<circle fill="#E6E6E6" cx="296.1" cy="335.5" r="37.4"/>
		<polygon fill="#886B39" points="361.8,484 360.9,487.7 356.2,507.9 367.7,510.6 379.4,461.6 367.8,458.8 361.8,484 		"/>
		<polygon fill="#886B39" points="234.1,562.8 234.1,599.3 325.6,599.3 333.2,533.1 318.2,546.2 		"/>
		<polygon fill="#B3B3B3" points="361.8,484 361.8,484 360.9,487.7 		"/>
		<path fill="#E8D771" d="M372,334l3.7-11.6c4.9-14.8,7.5-30.5,7.5-46.9c0-79.9-62.8-145.1-141.8-149c-2.4-0.1-4.9-0.2-7.4-0.2v2.2
			V305c14.9-17.8,37.2-29.1,62.2-29.1c36.9,0,60.5,24.6,69.7,58.4c0,0-6.3,24.8-30,48.5s-50.5,33.1-50.5,33.1l-51.5-37.1v36
			l33.6,24.9l-33.6-19.4v48.4h33.6v21.6h-33.6V503v49.4l77.3-28.7L318,503l4.5-14.2h36h2.1l1.1-4.9h-2.1h-35.6l46.4-145.1h25.9V334
			H372z M314.6,194.2c-3.8,5.8-15.3,5-25.7-1.8c-10.3-6.8-15.6-17.1-11.7-22.9s15.3-5,25.7,1.8C313.2,178.1,318.4,188.4,314.6,194.2
			z M323.5,210.4c-3,0-5.3-2.4-5.3-5.3c0-3,2.4-5.3,5.3-5.3c3,0,5.3,2.4,5.3,5.3C328.8,208,326.4,210.4,323.5,210.4z"/>
		<rect x="234.1" y="468.6" fill="#3A2E24" width="33.6" height="21.6"/>
		<path fill="#886B39" d="M238.6,108.8c-1.2-1.1-2.8-1.8-4.5-1.8v1.7v11.6c3.7,0,6.7-3,6.7-6.7C240.8,111.8,239.9,110,238.6,108.8z"
			/>

			<ellipse transform="matrix(0.5511 -0.8345 0.8345 0.5511 -18.9178 328.5469)" fill="#FEEC9E" cx="295.9" cy="181.9" rx="12.6" ry="22.4"/>
		<circle fill="#FEEC9E" cx="323.5" cy="205.1" r="5.3"/>
		<path fill="#3A2E24" d="M302.9,327.8c-0.5-0.5-1.1-0.9-1.8-1.2c-1.5-0.8-3.1-1.2-4.9-1.2c-1.9,0-3.6,0.5-5.1,1.4
			c-0.6,0.4-1.2,0.8-1.8,1.3c-2.1,1.9-3.5,4.7-3.5,7.8c0,3.1,1.4,5.9,3.5,7.8c0.5,0.5,1.1,0.9,1.8,1.3c1.5,0.9,3.3,1.4,5.1,1.4
			c1.8,0,3.4-0.4,4.9-1.2c0.6-0.3,1.2-0.7,1.8-1.2c2.3-1.9,3.7-4.8,3.7-8C306.6,332.6,305.2,329.7,302.9,327.8z"/>
		<g>
			<polygon fill="#CB9937" points="267.7,439.7 234.1,414.8 234.1,420.3 			"/>
			<path fill="#CB9937" d="M370.5,338.9L324.1,484h35.6h2.1l5.9-25.1l11.9-50.6h9.9l6.8-64.9v-4.5H370.5z M384.1,401l-5.3-0.6
				l2.3-22.1l5.3,0.6L384.1,401z M387.3,370.3l-5.3-0.6l2.3-21.9l5.3,0.6L387.3,370.3z"/>
			<polygon fill="#CB9937" points="360.7,488.8 358.6,488.8 322.6,488.8 318,503 311.4,523.7 234.1,552.4 234.1,562.8 318.2,546.2
				333.2,533.1 354.7,514.2 356.2,507.9 			"/>
			<path fill="#CB9937" d="M248.3,109.4c-1.9-6.1-7.5-10.5-14.2-10.5v8.1c1.7,0,3.3,0.7,4.5,1.8c1.3,1.2,2.2,3,2.2,4.9
				c0,3.7-3,6.7-6.7,6.7v6c2.5,0,4.9,0.1,7.4,0.2c79,3.8,141.8,69.1,141.8,149c0,16.4-2.7,32.2-7.5,46.9L372,334h24.4v-55.7
				c0-1.7,0.1-3.3,0.1-5C396.5,187.3,331.3,116.6,248.3,109.4z"/>
			<path fill="#CB9937" d="M296.3,276c-25,0-47.3,11.3-62.2,29.1v73.8l51.5,37.1c0,0,26.8-9.4,50.5-33.1s30-48.5,30-48.5
				C356.7,300.6,333.2,276,296.3,276z M265.8,354.6c-3.4-5.5-5.4-11.9-5.4-18.9c0-6.9,2-13.4,5.4-18.9V354.6z M277.6,366.3
				c-3.9-2.4-7.3-5.5-10-9.1v-43c2.7-3.6,6.1-6.7,10-9.1V366.3z M312.9,367.5c-3.1,1.6-6.4,2.8-10,3.5v-23.6
				c-0.1,0.1-0.3,0.2-0.4,0.2c-0.5,0.2-0.9,0.5-1.4,0.6v23c-1.6,0.2-3.2,0.3-4.9,0.3c-1.7,0-3.4-0.1-5.1-0.4v-23.1
				c-0.5-0.2-1-0.4-1.5-0.7c-0.1-0.1-0.2-0.1-0.3-0.2v23.7c-3.5-0.7-6.9-1.9-10-3.6v-63.2c3.1-1.7,6.4-2.9,10-3.6v23.7
				c0.1-0.1,0.2-0.1,0.3-0.2c0.5-0.3,1-0.5,1.5-0.7v-23.1c1.7-0.2,3.4-0.4,5.1-0.4c1.7,0,3.3,0.1,4.9,0.3v23
				c0.5,0.2,0.9,0.4,1.4,0.6c0.1,0.1,0.3,0.2,0.4,0.2v-23.6c3.5,0.7,6.9,1.9,10,3.5V367.5z M324.7,357.6c-2.7,3.6-6.1,6.6-10,8.9
				v-61.4c3.9,2.3,7.3,5.4,10,8.9V357.6z M326.4,355v-38.5c3.6,5.6,5.6,12.2,5.6,19.3C332.1,342.9,330,349.5,326.4,355z"/>
		</g>
			<rect x="374.8" y="356.4" transform="matrix(0.1033 -0.9946 0.9946 0.1033 -11.2586 705.7143)" fill="#886B39" width="22" height="5.3"/>
			<rect x="371.5" y="387" transform="matrix(0.1033 -0.9946 0.9946 0.1033 -44.5225 729.9738)" fill="#886B39" width="22.2" height="5.3"/>
		</g>
		<g>
		<polygon fill="#35342F" points="197.8,552.5 130.8,552.5 122.3,551.2 39.1,514.8 45.8,599.3 112.8,599.3 130.8,599.3 197.8,599.3"/>
		<polygon fill="#B3B3B3" points="28.4,46.8 21.4,48.3 21.4,232.7 28.4,232.7"/>
		<path fill="#35342F" d="M28.4,232.7h-7h-7.1v168.2l8.8-78.1c-0.6-0.1-1.1-0.3-1.7-0.4l6.8-61.8l1.8,0.2l1.8-16.3h0
			c0.3-4,0.8-8,1.4-11.8H28.4z"/>
		<path fill="#4D8753" d="M142.7,557.9c-0.2-2.7-0.3-6-0.3-8.2c0-83.2-27.4-150.6-61.2-150.6c-27.8,0-51.3,45.8-58.7,108.5
			l-19.2-8.8l11-98v0l-11,98l139.3,63.9h0.1C142.6,561.2,142.6,559.6,142.7,557.9z"/>
		<polygon fill="#4D4D4D" points="23.1,322.8 23.1,322.8 14.3,400.9 14.3,400.9"/>
		<path fill="#4D8753" d="M33.3,232.7c-0.6,3.9-1.1,7.8-1.4,11.8h0l-1.8,16.3l9,1.1l158.7,19.8V99.5
			C114.7,99.5,45.8,153.7,33.3,232.7z"/>
		<polygon fill="#111111" points="39.1,287.5 37.8,287.2 38.3,301.2 39.1,301.5 154.3,348.2 161.1,562.8 197.8,562.8 197.8,315.8"/>
		<path fill="#16281F" d="M142.3,524.2c0-89.3-43-169.7-103.2-195.9c-5.2-2.3-10.6-4.1-16-5.6l-8.8,78.1l-11,98l19.2,8.8
			c7.4-62.7,30.9-108.5,58.7-108.5c33.8,0,61.2,67.4,61.2,150.6c0,2.2,0.2,5.5,0.3,8.2C142.7,547,142.3,535.7,142.3,524.2z"/>
		<path fill="#333333" d="M142.6,562.8h0.3c0,0-0.2-2.1-0.3-4.8C142.6,559.6,142.6,561.2,142.6,562.8z"/>
		<path fill="#9E1D20" d="M39.1,261.9l-9-1.1l-1.8-0.2l-6.8,61.8c0.6,0.1,1.1,0.3,1.7,0.4c0,0,0,0,0,0c5.5,1.4,10.8,3.3,16,5.6
			C99.3,354.5,142.3,435,142.3,524.2c0,11.5,0.4,22.7,0.3,33.7c0.2,2.7,0.3,4.8,0.3,4.8h4h0.3h13.8l-6.8-214.6L39.1,301.5l-0.8-0.3
			l-0.6-13.9l1.3,0.2l158.7,28.3v-26.9v-7.1L39.1,261.9z"/>
		<polygon fill="#35342F" points="119.8,11.8 7.5,2.9 18,49.1 21.4,48.3 28.4,46.8 120.3,26"/>
		<circle fill="#E6E6E6" cx="177.6" cy="261.9" r="0"/>
	</g>
</svg>
